<svg xmlns="http://www.w3.org/2000/svg" xmlns:xlink="http://www.w3.org/1999/xlink" width="283" zoomAndPan="magnify" viewBox="0 0 212.25 212.25" height="283" preserveAspectRatio="xMidYMid meet" version="1.0"><defs><g/><clipPath id="2686e2ca2c"><path d="M 0 0 L 211.503906 0 L 211.503906 211.503906 L 0 211.503906 Z M 0 0 " clip-rule="nonzero"/></clipPath><clipPath id="d66770bc18"><path d="M 0 0 L 211.503906 0 L 211.503906 211.503906 L 0 211.503906 Z M 0 0 " clip-rule="nonzero"/></clipPath><clipPath id="f6a78002fb"><path d="M 22.421875 0 L 189.082031 0 C 201.464844 0 211.503906 10.039062 211.503906 22.421875 L 211.503906 189.082031 C 211.503906 201.464844 201.464844 211.503906 189.082031 211.503906 L 22.421875 211.503906 C 10.039062 211.503906 0 201.464844 0 189.082031 L 0 22.421875 C 0 10.039062 10.039062 0 22.421875 0 Z M 22.421875 0 " clip-rule="nonzero"/></clipPath><clipPath id="46e8d6dcbb"><path d="M 0 0 L 211.503906 0 L 211.503906 211.503906 L 0 211.503906 Z M 0 0 " clip-rule="nonzero"/></clipPath><clipPath id="eb242950f2"><path d="M 22.421875 0 L 189.082031 0 C 201.464844 0 211.503906 10.039062 211.503906 22.421875 L 211.503906 189.082031 C 211.503906 201.464844 201.464844 211.503906 189.082031 211.503906 L 22.421875 211.503906 C 10.039062 211.503906 0 201.464844 0 189.082031 L 0 22.421875 C 0 10.039062 10.039062 0 22.421875 0 Z M 22.421875 0 " clip-rule="nonzero"/></clipPath><clipPath id="4417133bd3"><rect x="0" width="212" y="0" height="212"/></clipPath><clipPath id="486ea05cc4"><rect x="0" width="62" y="0" height="110"/></clipPath><clipPath id="a167dc2961"><rect x="0" width="212" y="0" height="212"/></clipPath></defs><g clip-path="url(#2686e2ca2c)"><g transform="matrix(1, 0, 0, 1, 0, -0.000000000000018208)"><g clip-path="url(#a167dc2961)"><g clip-path="url(#d66770bc18)"><g clip-path="url(#f6a78002fb)"><g transform="matrix(1, 0, 0, 1, 0, -0.000000000000018208)"><g clip-path="url(#4417133bd3)"><g clip-path="url(#46e8d6dcbb)"><g clip-path="url(#eb242950f2)"><path fill="#1296dd" d="M 0 0 L 211.503906 0 L 211.503906 211.503906 L 0 211.503906 Z M 0 0 " fill-opacity="1" fill-rule="nonzero"/></g></g></g></g></g></g><g transform="matrix(1, 0, 0, 1, 75, 50)"><g clip-path="url(#486ea05cc4)"><g fill="#ffffff" fill-opacity="1"><g transform="translate(0.850025, 85.495789)"><g><path d="M 55.109375 -29.390625 C 55.109375 -19.890625 52.40625 -12.613281 47 -7.5625 C 41.59375 -2.519531 33.789062 0 23.59375 0 L 7.25 0 L 7.25 -57.671875 L 25.359375 -57.671875 C 34.773438 -57.671875 42.085938 -55.179688 47.296875 -50.203125 C 52.503906 -45.234375 55.109375 -38.296875 55.109375 -29.390625 Z M 42.40625 -29.0625 C 42.40625 -41.445312 36.9375 -47.640625 26 -47.640625 L 19.484375 -47.640625 L 19.484375 -10.09375 L 24.734375 -10.09375 C 36.515625 -10.09375 42.40625 -16.414062 42.40625 -29.0625 Z M 42.40625 -29.0625 "/></g></g></g></g></g></g></g></g></svg>